<svg width="160" height="48" viewBox="0 0 160 48" fill="none" xmlns="http://www.w3.org/2000/svg">
<path id="Combined Shape" fill-rule="evenodd" clip-rule="evenodd" d="M14.5485 48H16.8126C19.1623 47.495 20.7056 45.9627 21.9714 44.0628C22.4455 43.3506 22.9536 42.6604 23.4625 41.9722C24.9216 40.0002 26.813 38.7573 29.3376 38.5978C29.4917 38.5879 29.6455 38.5752 29.7863 38.5634H29.7864C29.8525 38.5579 29.9158 38.5527 29.975 38.5481C29.0933 37.0843 28.2356 35.6602 27.4698 34.3884C27.8146 34.2611 28.1386 34.1308 28.4501 34.0055L28.4502 34.0055C29.1109 33.7398 29.7151 33.4968 30.3421 33.3527C31.6662 33.0477 32.6719 32.2577 33.5985 31.3964C34.3212 30.7247 34.9424 29.9427 35.5607 29.1643L35.5607 29.1642C35.694 28.9964 35.8272 28.8288 35.9612 28.6624C36.2886 28.256 36.5856 27.8003 36.78 27.3209C36.9062 27.01 37.0238 26.6955 37.1379 26.3796C37.3783 26.9198 37.7288 27.3949 38.1894 27.8051C39.1528 28.6629 40.4032 29.0919 41.9406 29.0919C42.909 29.0919 43.7326 28.9015 44.4115 28.5208C45.0904 28.14 45.6694 27.6268 46.1486 26.981C46.2285 27.3087 46.3258 27.6268 46.4406 27.9352C46.5554 28.2437 46.6827 28.5232 46.8225 28.7738L51.8241 28.7882C51.5346 28.0846 51.3175 27.3762 51.1727 26.6629C51.028 25.9496 50.9556 25.1737 50.9556 24.3351V18.4362C50.9556 16.6433 50.3341 15.265 49.0912 14.3011C47.8483 13.3372 46.2285 12.8553 44.2318 12.8553C42.0954 12.8553 40.3782 13.3348 39.0804 14.2939C38.8096 14.494 38.5686 14.7042 38.3574 14.9247C38.3317 14.7914 38.3068 14.6582 38.2833 14.525C37.5215 10.2115 35.3287 6.80498 31.6018 4.42256C30.3729 3.63696 29.1026 2.87622 27.7631 2.30908C25.5152 1.35755 23.1238 0.828478 20.7259 0.365941C20.2439 0.273343 19.7528 0.225622 19.2626 0.177985L19.0655 0.158721C18.6203 0.114266 18.1745 0.0802106 17.7285 0.0461419C17.5312 0.0310649 17.3338 0.0159851 17.1364 0H15.1956C15.1661 0.0161888 15.1372 0.0355488 15.1083 0.0548853L15.1083 0.054889C15.0471 0.0958729 14.9861 0.13675 14.92 0.147098C14.4174 0.226858 13.9143 0.302644 13.4111 0.378436L13.4111 0.378438C12.8422 0.464135 12.2732 0.549839 11.7049 0.641299C10.023 0.911846 8.45494 1.56156 7.06678 2.47421C5.69159 3.37844 4.61583 4.63579 3.80223 6.11358C2.81885 7.8996 2.16529 9.75335 2.10167 11.7935C2.09853 11.8933 2.11563 11.9988 2.13254 12.1031C2.15929 12.2682 2.18556 12.4304 2.13044 12.5622C1.60955 13.808 2.16354 14.9903 2.63143 15.9887L2.65475 16.0385C3.25442 17.3183 3.64015 18.2954 2.64867 19.5552C1.92866 20.469 1.73296 21.5801 2.66974 22.6202C2.82736 22.7954 2.81358 23.2968 2.67501 23.5288C1.97406 24.7057 1.2254 25.8559 0.477155 27.0054L0.274705 27.3165C-0.25568 28.1326 -0.00689664 28.8897 0.924618 29.1975C1.22779 29.2979 1.53466 29.3879 1.87335 29.4873C2.0353 29.5348 2.20452 29.5845 2.38409 29.6384C2.31767 29.7883 2.26138 29.9313 2.20794 30.067L2.20793 30.067C2.1003 30.3403 2.00421 30.5844 1.86018 30.7968L1.83003 30.8412C1.16628 31.8183 1.16525 31.8198 2.05832 32.6112C2.09737 32.6457 2.12653 32.6906 2.15272 32.731C2.16403 32.7485 2.17479 32.7651 2.18555 32.7796L1.92604 33.1737C1.76275 33.4217 1.60369 33.6633 1.4469 33.9011C2.44365 34.7307 2.60896 35.1852 2.30265 36.1396C1.73296 37.9156 2.40637 38.9837 4.2694 39.2218C6.00701 39.4439 7.66387 39.0342 9.32173 38.6241C9.46807 38.588 9.61443 38.5518 9.76084 38.516C10.0116 38.4551 10.463 38.4314 10.5384 38.5569C10.7095 38.8423 10.9129 39.1144 11.1166 39.3868C11.7072 40.1768 12.3001 40.9699 12.1145 42.1001C12.0833 42.2896 12.1243 42.5838 12.2511 42.6904C13.5975 43.8195 13.6915 45.3699 13.6984 46.9246C13.7012 47.5719 13.9342 47.8962 14.5485 48ZM44.0371 19.5205C41.7763 19.5205 40.0464 19.8779 38.8474 20.5926C38.8689 20.0304 38.8559 19.466 38.8429 18.903C38.8368 18.6377 38.8307 18.3726 38.8282 18.1083C38.8278 18.0601 38.8268 18.0119 38.8254 17.9636L42.1652 17.9735C42.1652 17.4145 42.3075 17.0024 42.592 16.7373C42.8766 16.4723 43.3083 16.3397 43.8874 16.3397C44.5662 16.3397 45.0679 16.518 45.3924 16.8747C45.7168 17.2313 45.879 17.7422 45.879 18.4073V19.5205H44.0371ZM65.6273 24.393C65.6273 24.0074 65.4001 23.6628 64.9459 23.3592C64.4916 23.0556 63.6655 22.7833 62.4675 22.5423C60.5807 22.1857 59.1581 21.6314 58.1996 20.8796C57.2412 20.1278 56.762 19.1013 56.762 17.8C56.762 16.4216 57.361 15.253 58.5591 14.2939C59.7571 13.3348 61.3793 12.8553 63.4259 12.8553C65.5823 12.8553 67.2995 13.3204 68.5773 14.2505C69.8552 15.1807 70.4642 16.3831 70.4043 17.8578L70.3743 17.9446H65.4625C65.4625 17.3277 65.3003 16.8602 64.9758 16.5421C64.6514 16.2241 64.1298 16.065 63.411 16.065C62.8818 16.065 62.4376 16.2048 62.0782 16.4843C61.7188 16.7638 61.5391 17.1205 61.5391 17.5542C61.5391 17.9687 61.7462 18.3205 62.1605 18.6097C62.5749 18.8988 63.4109 19.1591 64.6689 19.3904C66.6456 19.7663 68.1106 20.3278 69.064 21.0748C70.0174 21.8218 70.4941 22.8797 70.4941 24.2484C70.4941 25.6556 69.8477 26.8147 68.5549 27.7256C67.262 28.6364 65.5524 29.0919 63.4259 29.0919C61.2196 29.0919 59.475 28.5521 58.1922 27.4725C56.9093 26.393 56.2978 25.1882 56.3577 23.858L56.3877 23.7712H60.97C60.99 24.5134 61.2221 25.0484 61.6664 25.3761C62.1106 25.7038 62.7421 25.8677 63.5607 25.8677C64.2396 25.8677 64.7537 25.74 65.1031 25.4845C65.4525 25.2291 65.6273 24.8653 65.6273 24.393ZM78.8652 9.25519V13.1444H81.6056V16.5277H78.8652V23.6989C78.8652 24.258 78.9825 24.6604 79.2171 24.9062C79.4517 25.152 79.7687 25.2749 80.168 25.2749C80.4875 25.2749 80.7396 25.2652 80.9243 25.246C81.109 25.2267 81.3461 25.1881 81.6356 25.1303L81.995 28.7449C81.4359 28.8702 80.9318 28.9593 80.4825 29.0123C80.0333 29.0653 79.5042 29.0919 78.8952 29.0919C77.2279 29.0919 75.9651 28.6629 75.1065 27.8051C74.2479 26.9472 73.8186 25.5882 73.8186 23.7279V16.5277H71.5424V13.1444H73.8186V9.25519H78.8652ZM100.055 8.51781H92.1182V28.7882H91.3096V8.51781H83.3728V7.73707H100.055V8.51781ZM106.659 25.9544L107.258 27.5159H107.348L107.438 27.2846L113.038 13.1444H113.937L106.734 31.3907C106.295 32.4895 105.783 33.3835 105.199 34.0727C104.615 34.7619 103.684 35.1065 102.406 35.1065C102.216 35.1065 102.007 35.0896 101.777 35.0559C101.547 35.0221 101.378 34.986 101.268 34.9474L101.403 34.2101C101.513 34.239 101.677 34.2679 101.897 34.2968C102.117 34.3257 102.286 34.3402 102.406 34.3402C103.324 34.3402 104.041 34.0799 104.555 33.5594C105.069 33.0389 105.526 32.2678 105.925 31.2461L106.899 28.7015L100.444 13.1444H101.328L106.659 25.9544ZM129.406 21.2555C129.406 23.6652 128.867 25.5737 127.788 26.981C126.71 28.3882 125.223 29.0919 123.326 29.0919C122.058 29.0919 120.952 28.8461 120.009 28.3545C119.065 27.8629 118.329 27.1978 117.8 26.3593V34.8029H116.991V13.1445H117.62L117.785 15.9494C118.324 14.9855 119.058 14.2288 119.986 13.6794C120.915 13.13 122.018 12.8553 123.296 12.8553C125.203 12.8553 126.698 13.5854 127.781 15.0457C128.864 16.506 129.406 18.4747 129.406 20.9519V21.2555ZM128.582 20.9519C128.582 18.7831 128.131 17.0217 127.227 15.6674C126.324 14.3132 125.018 13.636 123.311 13.636C121.744 13.636 120.526 14.0168 119.657 14.7782C118.789 15.5397 118.17 16.4747 117.8 17.5831V24.899C118.2 25.94 118.869 26.7689 119.807 27.3858C120.746 28.0027 121.924 28.3111 123.341 28.3111C125.048 28.3111 126.349 27.675 127.242 26.4026C128.136 25.1303 128.582 23.4146 128.582 21.2555V20.9519ZM139.334 29.0919C137.487 29.0919 135.893 28.3714 134.55 26.9304C133.207 25.4894 132.536 23.699 132.536 21.5591V20.6338C132.536 18.388 133.185 16.5301 134.482 15.0602C135.78 13.5903 137.383 12.8553 139.289 12.8553C141.116 12.8553 142.606 13.4336 143.759 14.5903C144.912 15.7469 145.489 17.2988 145.489 19.2458V20.4459H133.344V21.5591C133.344 23.4484 133.918 25.046 135.066 26.352C136.214 27.6581 137.637 28.3111 139.334 28.3111C140.542 28.3111 141.553 28.1521 142.367 27.834C143.18 27.5159 143.877 27.0388 144.456 26.4026L144.89 27.0099C144.251 27.6942 143.475 28.2123 142.561 28.5641C141.648 28.916 140.572 29.0919 139.334 29.0919ZM139.29 13.636C137.682 13.636 136.345 14.2023 135.276 15.3349C134.208 16.4674 133.604 17.8819 133.464 19.5784L133.509 19.6651H144.681V19.188C144.681 17.5976 144.181 16.2747 143.183 15.2192C142.185 14.1637 140.887 13.636 139.29 13.636ZM159.191 24.9568C159.191 24.1279 158.825 23.3736 158.091 22.6941C157.357 22.0146 156.077 21.482 154.25 21.0965C152.323 20.7013 150.928 20.1928 150.064 19.5711C149.201 18.9494 148.769 18.0265 148.769 16.8024C148.769 15.6843 149.258 14.7469 150.236 13.9903C151.215 13.2336 152.533 12.8553 154.19 12.8553C155.977 12.8553 157.384 13.2601 158.413 14.0698C159.441 14.8795 159.93 15.9349 159.88 17.2361L159.85 17.3229H159.161C159.161 16.3012 158.715 15.4313 157.821 14.7132C156.928 13.9951 155.717 13.636 154.19 13.636C152.672 13.636 151.524 13.9517 150.746 14.5831C149.967 15.2144 149.577 15.9445 149.577 16.7735C149.577 17.5928 149.907 18.2916 150.566 18.8699C151.225 19.4482 152.533 19.9543 154.489 20.388C156.296 20.7929 157.666 21.3447 158.6 22.0435C159.533 22.7423 160 23.7182 160 24.9713C160 26.1954 159.481 27.1882 158.443 27.9497C157.404 28.7111 156.027 29.0919 154.31 29.0919C152.423 29.0919 150.943 28.6846 149.87 27.8701C148.796 27.0557 148.295 26.0653 148.365 24.899L148.394 24.8122H149.053C149.133 26.046 149.682 26.9376 150.701 27.487C151.719 28.0364 152.922 28.3111 154.31 28.3111C155.807 28.3111 156.995 27.9738 157.874 27.2991C158.752 26.6243 159.191 25.8436 159.191 24.9568ZM44.8608 25.3182C44.4415 25.511 43.9823 25.6074 43.4831 25.6074C42.9839 25.6074 42.5771 25.47 42.2626 25.1953C41.9482 24.9206 41.7909 24.5616 41.7909 24.1182C41.7909 23.5399 41.9731 23.0628 42.3375 22.6868C42.7019 22.3109 43.2834 22.123 44.0821 22.123H45.8791V24.5664C45.6195 24.8749 45.2801 25.1255 44.8608 25.3182ZM31.8433 21.4868L31.8133 21.4001H26.8865C26.8167 22.7688 26.5271 23.7664 26.018 24.3929C25.5088 25.0194 24.6453 25.3327 23.4273 25.3327C22.1694 25.3327 21.1811 24.8845 20.4623 23.9881C19.7435 23.0917 19.3841 21.9157 19.3841 20.4603V16.0361C19.3841 14.5902 19.7135 13.4215 20.3724 12.53C21.0313 11.6384 21.9348 11.1926 23.0829 11.1926C24.4406 11.1926 25.4015 11.5251 25.9656 12.1902C26.5296 12.8553 26.8466 13.8721 26.9165 15.2409H31.8433L31.8732 15.1541C31.6835 12.6866 30.8599 10.7829 29.4023 9.44312C27.9448 8.10332 25.8383 7.43343 23.0829 7.43343C20.4872 7.43343 18.3782 8.23585 16.7559 9.84072C15.1336 11.4456 14.3225 13.5203 14.3225 16.065V20.4603C14.3225 23.0146 15.1661 25.0917 16.8533 26.6918C18.5405 28.2918 20.7318 29.0918 23.4273 29.0918C26.1128 29.0918 28.1619 28.4412 29.5746 27.14C30.9872 25.8387 31.7434 23.9544 31.8433 21.4868Z" fill="white"/>
</svg>
